<?xml version="1.0" encoding="UTF-8"?><svg id="BB_ART" xmlns="http://www.w3.org/2000/svg" viewBox="0 0 385.69 342.4"><defs><style>.cls-1{fill:#ff005c;}</style></defs><g><path class="cls-1" d="m214.74,166.75c-5.42,0-8.09,2.81-8.77,3.67-.11.14-.29.19-.46.13-.16-.06-.27-.21-.27-.39v-13.96h-7.22v33.88c.55.84,5.07,7.22,15.64,7.22.1,0,.19,0,.29,0,9.74,0,15.54-5.71,15.54-15.28,0-8.99-6.06-15.28-14.75-15.28Zm-1.05,24.25c-5.38,0-8.71-3.39-8.71-8.85s3.5-8.98,8.71-8.98,8.71,3.61,8.71,8.98-3.67,8.85-8.71,8.85Z"/><path class="cls-1" d="m257.33,170.42c0,.18-.12.34-.29.39-.17.05-.36-.01-.46-.16-1.21-1.76-4.15-3.64-8.76-3.64-8.82,0-14.75,6.14-14.75,15.28s6.06,15.28,14.75,15.28c3.93,0,7.45-1.82,8.77-3.53.11-.14.29-.2.46-.14.17.06.28.21.28.39v2.49h7.22v-29.1h-7.22v2.75Zm-8.32,20.58c-5.05,0-8.71-3.72-8.71-8.85s3.5-8.98,8.71-8.98,8.71,3.61,8.71,8.98-3.42,8.85-8.71,8.85Z"/><path class="cls-1" d="m284.99,186.51c-.06.16-.21.27-.38.27-.18,0-.33-.1-.39-.26l-7.54-18.99h-8.58l12.66,28.42c.05.1.05.22,0,.32l-4.85,11.69h8.02l16.54-40.44h-8.59l-6.89,18.98Z"/></g><g><path class="cls-1" d="m201.87,111.67c2.21,0,4.07-1.86,4.07-4.07s-1.83-3.94-4.07-3.94-4.2,1.8-4.2,3.94c0,2.24,1.89,4.07,4.2,4.07Z"/><rect class="cls-1" x="198.06" y="116.05" width="7.35" height="29.23"/><path class="cls-1" d="m213.33,122.23v16.74c0,5.94,3.62,7.1,9.87,7.1,1.04,0,2.37-.1,3.28-.21v-6.01c-.47.05-1.01.05-1.7.05-3.86,0-4.09-2.92-4.1-4.59-.08-.08-.13-.18-.13-.3v-12.79c0-.23.18-.41.41-.41h5.65v-6.3h-5.65c-.23,0-.41-.18-.41-.41v-6.8h-7.22v6.8c0,.23-.18.41-.41.41h-3.28v6.3h3.28c.23,0,.41.18.41.41Z"/><path class="cls-1" d="m245.22,146.08c6.52,0,11.09-2.68,13.93-8.2l-6.26-2.48c-2.42,3.51-5.56,4.26-7.8,4.26-4.97,0-8.72-3.8-8.72-8.85s3.61-8.85,8.58-8.85c3,0,5.56,1.46,7.41,4.22v.02s.07.07.1.12h0s.02.03.02.03l6.64-2.61c-.74-1.29-1.65-2.48-2.72-3.56-.02-.02-.04-.04-.05-.06-3.02-3.01-6.96-4.59-11.4-4.59-8.79,0-15.93,6.85-15.93,15.28s7.27,15.28,16.2,15.28Z"/><path class="cls-1" d="m292.3,130.67c0-8.28-7.36-15.28-16.07-15.28s-15.93,6.85-15.93,15.28,7.15,15.28,15.93,15.28,16.07-6.85,16.07-15.28Zm-24.65,0c0-5.04,3.75-8.85,8.72-8.85s8.71,3.8,8.71,8.85-3.83,8.98-8.71,8.98-8.72-3.78-8.72-8.98Z"/><path class="cls-1" d="m300.09,103.66c-2.28,0-4.2,1.8-4.2,3.94,0,2.24,1.89,4.07,4.2,4.07s4.07-1.79,4.07-4.07-1.83-3.94-4.07-3.94Z"/><rect class="cls-1" x="296.41" y="116.05" width="7.35" height="29.23"/><path class="cls-1" d="m324.87,115.26c-2.65,0-5.91,1.34-7.75,3.18-.12.12-.29.15-.45.09-.15-.06-.25-.21-.25-.38v-2.23h-7.35v29.37h7.35v-15.54c-.06-2.95.63-5.19,2.04-6.63,1.44-1.47,3.23-1.69,4.17-1.69,2.83,0,6.21,1.12,6.21,6.47v17.39h7.61v-17.39c0-8.5-3.68-12.52-11.59-12.64Z"/><path class="cls-1" d="m177.09,115.26c-5.42,0-8.09,2.81-8.77,3.67-.11.14-.29.19-.46.13-.16-.06-.27-.21-.27-.39v-14.22h-7.22v34.01c.55.85,5.11,7.47,15.93,7.35,9.73,0,15.54-5.71,15.54-15.28,0-8.99-6.06-15.28-14.75-15.28Zm-1.06,24.25c-5.38,0-8.71-3.39-8.71-8.85s3.5-8.98,8.71-8.98,8.72,3.61,8.72,8.98-3.67,8.85-8.72,8.85Z"/></g><path class="cls-1" d="m182.53,192.97c-1.58-4.14-3.98-8.1-7.15-11.77-3.21-3.62-6.85-6.69-10.81-9.1-3.45-2.05-7.35-3.76-11.6-5.07-.12-.04-.21-.13-.25-.25l-.06-.18s-.02-.04-.03-.05c-4.03-11.4-13.43-20.77-25.79-25.71-.07-.03-.13-.08-.18-.14l-1.63-.56c-.18-.07-.27-.11-.37-.14l-1.46-.43c-8.48-2.66-17.58-3.14-26.39-1.41-.11.02-.23,0-.32-.08-.09-.07-.14-.18-.14-.3v-35.72h-36.42v77.08c0,4.52.82,9.03,2.52,13.79,1.57,4.13,3.98,8.09,7.14,11.77,3.21,3.62,6.85,6.69,10.81,9.1,3.46,2.06,7.37,3.77,11.61,5.08.1.03.19.1.23.2h0s.04.06.05.1c1.43,3.91,3.39,7.55,5.83,10.83,3,3.93,6.4,7.17,10.41,9.91,4.17,2.84,8.71,5.03,13.5,6.49,5.23,1.54,10.35,2.29,15.63,2.29,6.42,0,12.59-1.11,18.34-3.29,5.55-2.04,10.62-5.03,15.08-8.89,4.34-3.75,7.79-8.24,10.24-13.35,2.54-5.27,3.82-10.83,3.82-16.51,0-4.59-.88-9.2-2.61-13.69Zm-92.17,18.73c-.07.05-.15.08-.24.08-.05,0-.1,0-.14-.03-2.29-.92-4.43-1.98-6.37-3.17-3.58-2.26-6.71-4.92-9.33-7.91-2.66-3.14-4.71-6.51-6.1-10.03-1.41-3.66-2.15-7.64-2.15-11.5v-70.61c0-.21.17-.39.39-.39h23.48c.21,0,.39.17.39.39v31.03c0,.1-.04.19-.1.26v66.85c0,1.44.11,2.97.32,4.69.02.14-.04.27-.15.35Zm36.25-63.74c0-.13.07-.26.18-.33.11-.07.25-.08.37-.02,7.89,3.75,14.26,9.74,17.94,16.86.07.13.06.28-.03.4-.08.12-.23.18-.37.16-2.48-.34-4.85-.51-7.04-.51-3.6,0-7.16.35-10.59,1.04-.03,0-.05,0-.08,0-.09,0-.18-.03-.24-.09-.09-.07-.14-.18-.14-.3v-17.22Zm-30.44-3.2c0-.18.12-.33.3-.38,3.38-.79,7-1.2,10.76-1.2,4.32,0,8.79.63,12.92,1.82.17.05.28.2.28.37v23.01c0,.16-.1.3-.24.36-.05.02-.09.03-.14.03-.11,0-.21-.04-.28-.12-3.2-3.44-7.78-5.42-12.57-5.42-3.8,0-7.39,1.19-10.39,3.45-.12.09-.27.1-.4.04-.13-.07-.21-.2-.21-.35v-21.61Zm21.86,34.4c0,5.52-4.87,10.01-10.85,10.01s-10.85-4.49-10.85-10.01,4.87-10.01,10.85-10.01,10.85,4.49,10.85,10.01Zm-20.77,34.8c-.15-.03-.27-.15-.3-.3-.52-2.38-.79-4.74-.79-7.01v-14.7c0-.15.08-.28.21-.35.13-.07.29-.05.4.04,3,2.26,6.59,3.45,10.39,3.45,9.25,0,16.78-7.15,16.78-15.94,0-1.92-.38-3.83-1.12-5.68-.04-.1-.04-.21.01-.31.05-.1.13-.17.24-.2l1.22-.37c4.36-1.26,8.81-1.89,13.26-1.89,3.1,0,6.45.34,9.96,1.03.15.03.27.15.3.3.52,2.39.79,4.76.79,7.04.09,4.7-.89,9.25-2.9,13.51-.09.19-.31.27-.51.19-2.15-.98-4.53-1.51-6.89-1.51-8.92,0-16.17,7.02-16.17,15.66,0,1.67.29,3.33.85,4.96.03.1.03.2-.02.3-.05.09-.13.16-.23.2l-.47.15c-4.85,1.63-9.91,2.46-15.06,2.46-3.1,0-6.46-.34-9.96-1.02Zm51.55-7.04c0,5.5-4.67,9.97-10.41,9.97-2.19,0-4.29-.65-6.08-1.89l-.09-.06c-.14-.1-.29-.2-.42-.3-1.43-1.12-2.53-2.6-3.17-4.28l-.05-.14c-.06-.16-.1-.27-.14-.39-.3-.95-.45-1.92-.45-2.91,0-5.5,4.67-9.97,10.41-9.97,1.41,0,2.78.27,4.08.8.13.05.26.11.39.18l.13.07c1.62.77,3.01,1.93,4.02,3.35.08.12.16.24.24.36l.1.16c.95,1.54,1.46,3.29,1.46,5.06Zm26.97,13.67c-2.03,4.25-5,8.1-8.83,11.45-3.89,3.41-8.33,6.05-13.21,7.83-5.11,1.89-10.48,2.84-15.93,2.84-4.66,0-9.38-.69-14.05-2.09-4.3-1.34-8.27-3.24-11.81-5.67-3.66-2.51-6.62-5.31-9.04-8.58-1.16-1.5-2.24-3.25-3.2-5.17-.06-.13-.05-.28.03-.4.08-.12.23-.18.37-.16,2.51.35,4.91.52,7.13.52,6.42,0,12.64-1.13,18.49-3.35l.49-.2c.14-.06.31-.02.42.09,3.05,3.1,7.31,4.87,11.69,4.87,8.92,0,16.17-7.02,16.17-15.66,0-3.7-1.38-7.31-3.88-10.14-.11-.12-.13-.3-.05-.45l.08-.15c.04-.08.08-.17.18-.33l.07-.14c2.53-5.25,3.81-10.79,3.81-16.44.04-1.5-.03-3.08-.22-4.71-.02-.13.04-.27.15-.35.11-.08.25-.1.38-.05,2.37.94,4.45,1.96,6.37,3.14,3.58,2.26,6.71,4.92,9.33,7.91,2.66,3.14,4.71,6.51,6.1,10.03,1.41,3.66,2.15,7.63,2.15,11.5,0,4.87-1.07,9.53-3.18,13.84Z"/></svg>